<svg xmlns="http://www.w3.org/2000/svg" viewBox="0 0 32 32" role="img" aria-label="SkywarnPlus-NG weather alerts">
  <defs>
    <linearGradient id="sky" x1="0" y1="0" x2="32" y2="32" gradientUnits="userSpaceOnUse">
      <stop offset="0%" stop-color="#38bdf8"/>
      <stop offset="100%" stop-color="#2563eb"/>
    </linearGradient>
  </defs>
  <!-- Rounded tile for tab contrast -->
  <rect width="32" height="32" rx="7" fill="url(#sky)"/>
  <!-- Storm cloud -->
  <path fill="#f1f5f9" fill-opacity="0.98" d="M6 20.5c0-3.3 2.7-5.7 6-5.7.4-3.1 3.1-5.3 6.3-5.3 2.4 0 4.5 1.4 5.5 3.5 2 .3 3.7 2 3.7 4.2 0 2.4-2 4.3-4.4 4.3H10.2A4.2 4.2 0 0 1 6 20.5Z"/>
  <!-- Lightning bolt -->
  <path fill="#fbbf24" d="m17.5 9-5.2 11h2.8l-1.6 7 7.5-9.5h-3.2l2.7-8.5h-3Z"/>
</svg>
